{
  "accessors": [
    {
      "bufferView": 2,
      "componentType": 5126,
      "count": 4795,
      "max": [
        6.944399833679199,
        1.2759000062942505,
        6.901269912719727
      ],
      "min": [
        -3.601030111312866,
        -9.269530296325684,
        -2.8275299072265625
      ],
      "type": "VEC3"
    },
    {
      "bufferView": 2,
      "byteOffset": 57540,
      "componentType": 5126,
      "count": 4795,
      "max": [
        1.0,
        1.0,
        1.0
      ],
      "min": [
        -1.0,
        -1.0,
        -1.0
      ],
      "type": "VEC3"
    },
    {
      "bufferView": 1,
      "componentType": 5126,
      "count": 4795,
      "max": [
        0.9758999943733215,
        0.9695500135421753
      ],
      "min": [
        0.0195700004696846,
        0.14691999554634094
      ],
      "type": "VEC2"
    },
    {
      "bufferView": 0,
      "componentType": 5125,
      "count": 13776,
      "type": "SCALAR"
    }
  ],
  "asset": {
    "extras": {
      "author": "Sorin Covor (https://sketchfab.com/blessthefall)",
      "license": "SKETCHFAB Standard (https://sketchfab.com/licenses)",
      "source": "https://sketchfab.com/3d-models/isometric-room-5a821d22196447e88fb8360d6b18ce16",
      "title": "Isometric Room"
    },
    "generator": "Sketchfab-12.67.0",
    "version": "2.0"
  },
  "bufferViews": [
    {
      "buffer": 0,
      "byteLength": 55104,
      "name": "floatBufferViews",
      "target": 34963
    },
    {
      "buffer": 0,
      "byteLength": 38360,
      "byteOffset": 55104,
      "byteStride": 8,
      "name": "floatBufferViews",
      "target": 34962
    },
    {
      "buffer": 0,
      "byteLength": 115080,
      "byteOffset": 93464,
      "byteStride": 12,
      "name": "floatBufferViews",
      "target": 34962
    }
  ],
  "buffers": [
    {
      "byteLength": 208544,
      "uri": "scene.bin"
    }
  ],
  "extensionsUsed": [
    "KHR_materials_unlit"
  ],
  "images": [
    {
      "uri": "textures/material_baseColor.png"
    }
  ],
  "materials": [
    {
      "doubleSided": true,
      "extensions": {
        "KHR_materials_unlit": {}
      },
      "name": "material",
      "pbrMetallicRoughness": {
        "baseColorTexture": {
          "index": 0
        },
        "metallicFactor": 0.0
      }
    }
  ],
  "meshes": [
    {
      "name": "Room_0",
      "primitives": [
        {
          "attributes": {
            "NORMAL": 1,
            "POSITION": 0,
            "TEXCOORD_0": 2
          },
          "indices": 3,
          "material": 0,
          "mode": 4
        }
      ]
    }
  ],
  "nodes": [
    {
      "children": [
        1
      ],
      "matrix": [
        0.5788807272911072,
        0.0,
        0.0,
        0.0,
        0.0,
        1.2853734239006868e-16,
        -0.5788807272911072,
        0.0,
        0.0,
        0.5788807272911072,
        1.2853734239006868e-16,
        0.0,
        0.0,
        0.0,
        0.0,
        1.0
      ],
      "name": "Sketchfab_model"
    },
    {
      "children": [
        2
      ],
      "name": "Root"
    },
    {
      "children": [
        3
      ],
      "matrix": [
        0.0,
        0.43810000000000004,
        0.0,
        0.0,
        -0.43810000000000004,
        0.0,
        0.0,
        0.0,
        0.0,
        0.0,
        0.43810000000000004,
        0.0,
        -1.75102,
        -0.7323700000000001,
        0.9765199999999999,
        1.0
      ],
      "name": "Room"
    },
    {
      "mesh": 0,
      "name": "Room_0"
    }
  ],
  "samplers": [
    {
      "magFilter": 9729,
      "minFilter": 9987,
      "wrapS": 10497,
      "wrapT": 10497
    }
  ],
  "scene": 0,
  "scenes": [
    {
      "name": "Sketchfab_Scene",
      "nodes": [
        0
      ]
    }
  ],
  "textures": [
    {
      "sampler": 0,
      "source": 0
    }
  ]
}
